<?xml version="1.0" encoding="utf-8"?>
<!-- Generator: Adobe Illustrator 23.0.1, SVG Export Plug-In . SVG Version: 6.00 Build 0)  -->
<svg version="1.2" baseProfile="tiny" id="Layer_1" xmlns="http://www.w3.org/2000/svg" xmlns:xlink="http://www.w3.org/1999/xlink"
	 x="0px" y="0px" width="50px" height="50px" viewBox="0 0 50 50" xml:space="preserve">
<g>
	<path fill-rule="evenodd" fill="#828282" d="M25,19.8c-2.9,0-5.2,2.3-5.2,5.2c0,2.9,2.4,5.2,5.2,5.2s5.2-2.3,5.2-5.2
		C30.2,22.1,27.9,19.8,25,19.8z"/>
	<path fill-rule="evenodd" fill="#828282" d="M37.2,15.8c-0.3-0.7-0.6-1.3-1.2-1.8c-0.6-0.5-1.1-0.9-1.8-1.2
		c-0.6-0.2-1.4-0.5-2.9-0.5c-1.6-0.1-2.1-0.1-6.3-0.1s-4.7,0-6.3,0.1c-1.5,0.1-2.4,0.3-2.9,0.5c-0.7,0.3-1.2,0.6-1.8,1.2
		s-0.9,1.1-1.2,1.8c-0.2,0.5-0.5,1.4-0.5,2.9c-0.1,1.6-0.1,2.1-0.1,6.3s0,4.6,0.1,6.3c0.1,1.5,0.3,2.4,0.5,2.9
		c0.3,0.7,0.6,1.3,1.2,1.8c0.5,0.5,1.1,0.9,1.8,1.2c0.5,0.2,1.4,0.5,2.9,0.5c1.6,0.1,2.2,0.1,6.3,0.1s4.6,0,6.3-0.1
		c1.5-0.1,2.4-0.3,2.9-0.5c0.7-0.3,1.2-0.6,1.8-1.2c0.5-0.5,0.9-1.1,1.2-1.8c0.2-0.5,0.5-1.4,0.5-2.9c0.1-1.6,0.1-2.1,0.1-6.3
		s0-4.6-0.1-6.3C37.6,17.2,37.4,16.4,37.2,15.8z M25,33c-4.5,0-8-3.6-8-8c0-4.4,3.6-8,8-8c4.4,0,8,3.6,8,8C33,29.4,29.4,33,25,33z
		 M33.3,18.5c-1,0-1.9-0.8-1.9-1.9c0-1,0.8-1.9,1.9-1.9c1,0,1.9,0.8,1.9,1.9C35.2,17.7,34.4,18.5,33.3,18.5z"/>
	<path fill-rule="evenodd" fill="#828282" d="M25,0.6C11.6,0.6,0.6,11.6,0.6,25S11.6,49.4,25,49.4S49.4,38.4,49.4,25
		S38.4,0.6,25,0.6z M40.5,31.4c-0.1,1.7-0.3,2.8-0.7,3.8c-0.4,1-0.9,1.9-1.8,2.7c-0.9,0.9-1.7,1.4-2.8,1.8c-1,0.4-2.1,0.7-3.8,0.7
		c-1.7,0.1-2.2,0.1-6.4,0.1s-4.8,0-6.4-0.1c-1.6-0.1-2.8-0.3-3.8-0.7c-1-0.4-1.9-0.9-2.7-1.8c-0.9-0.9-1.4-1.7-1.8-2.7
		c-0.4-1-0.6-2.1-0.7-3.8c-0.1-1.7-0.1-2.2-0.1-6.4c0-4.3,0-4.8,0.1-6.4s0.3-2.8,0.7-3.8c0.4-1,0.9-1.9,1.8-2.7
		c0.9-0.9,1.7-1.4,2.7-1.8c1-0.4,2.2-0.7,3.8-0.7c1.6-0.1,2.2-0.1,6.4-0.1s4.8,0,6.4,0.1c1.6,0.1,2.8,0.3,3.8,0.7
		c1,0.4,1.9,0.9,2.8,1.8c0.9,0.9,1.4,1.7,1.8,2.7c0.4,1,0.7,2.1,0.7,3.8c0.1,1.7,0.1,2.2,0.1,6.4C40.6,29.3,40.6,29.8,40.5,31.4z"/>
</g>
</svg>
